<?xml version="1.0" encoding="UTF-8"?><svg id="Capa_1" xmlns="http://www.w3.org/2000/svg" viewBox="0 0 210.99 217.14"><defs><style>.cls-1{fill:#000;stroke-width:0px;}</style></defs><path class="cls-1" d="M142.69,217.14c-3.91-.72-7.87-1.23-11.72-2.2-12.48-3.13-23.01-9.6-31.61-19.17-1.18-1.31-2.38-1.76-4.1-1.76-23.6.05-47.2.06-70.8.02-12.63-.03-22.63-8.58-24.22-20.59-.18-1.34-.22-2.71-.22-4.06-.01-41.32-.03-82.64,0-123.96,0-11.91,7.11-21.33,18.13-23.99,2.53-.61,5.19-.67,8.01-1.01-.27-6.21.9-11.99,5.97-16.29C35.35,1.38,39.11-.07,43.33,0c5.34.09,9.74,2.27,13.16,6.43,3.37,4.1,3.96,8.97,3.78,14.16h61.5c.05-.98.12-1.99.14-3,.23-8.35,4.74-14.47,12.36-16.73,9.7-2.87,20.09,4.13,21.09,14.22.18,1.79.25,3.59.37,5.45,2.3.2,4.56.24,6.77.61,10.77,1.8,19.24,10.95,19.52,21.83.35,13.56.14,27.14.17,40.71,0,4.37.08,8.75-.04,13.12-.05,1.78.55,2.84,1.99,3.9,16.94,12.62,26.62,29.42,26.85,50.62.29,26.99-12.23,46.78-36.11,59.32-6.75,3.55-14.07,5.32-21.62,6.15-.51.06-1.01.23-1.52.34h-9.05ZM90.81,184.59c-12.65-26.87-11.11-52.27,8.88-74.43,20.05-22.22,45.26-26.17,73.18-16.31,0-7.55-.08-14.93.05-22.31.04-2.16-.53-2.78-2.73-2.77-52.69.06-105.39.05-158.08.05h-2.68c-.06.95-.12,1.54-.12,2.13,0,32.79-.04,65.58.06,98.38,0,2.41.53,5.02,1.55,7.19,2.67,5.67,7.48,8.18,13.7,8.18,21.48-.01,42.97,0,64.45,0,.52,0,1.04-.05,1.74-.09ZM201.83,152.82c-.17-30.3-24.97-54.96-55.01-54.69-30.31.27-54.78,24.86-54.59,54.85.19,30.38,24.87,54.95,54.97,54.7,30.25-.25,54.81-24.91,54.64-54.86ZM121.91,30.27h-61.39c-.11.32-.2.46-.2.6-.02,2.79,0,5.58-.06,8.37-.07,3.33-1.67,5.19-4.93,5.24-8.07.11-16.14.11-24.2,0-3.31-.04-4.86-1.81-4.95-5.19-.06-2.41-.08-4.83,0-7.24.05-1.41-.35-1.99-1.89-2-6.86-.07-13.15,4.09-14.28,10.82-1.01,6-.68,12.23-.95,18.47h163.42c0-6.07.63-12.08-.16-17.89-1.04-7.64-9.26-12.7-16.74-10.99,0,2.71.01,5.48,0,8.25-.03,4.2-1.56,5.79-5.7,5.81-7.46.03-14.93.03-22.39,0-4.03-.01-5.54-1.56-5.57-5.67-.02-2.78,0-5.56,0-8.58ZM35.59,35.06h15.22c0-6.46.17-12.78-.07-19.08-.14-3.65-3.71-6.41-7.54-6.44-3.8-.03-7.37,2.67-7.54,6.41-.28,6.3-.08,12.62-.08,19.11ZM146.24,35.07c0-5.98.06-11.83-.02-17.68-.06-4.64-3.27-7.88-7.56-7.85-4.33.02-7.32,3.2-7.37,7.98-.06,5.27-.02,10.54,0,15.81,0,.57.13,1.14.21,1.75h14.74Z"/><path class="cls-1" d="M139.17,141.06c0-4.82-.01-9.64.01-14.47,0-.9.06-1.81.25-2.68.51-2.37,2.38-3.78,4.71-3.67,2.17.11,3.98,1.68,4.27,3.94.18,1.41.13,2.86.13,4.29.01,7.31.07,14.62-.04,21.92-.03,1.93.41,2.63,2.48,2.58,5.8-.14,11.6-.1,17.4-.02,3.35.04,5.38,2.05,5.18,4.94-.15,2.1-1.25,3.53-3.3,4.08-.93.25-1.93.32-2.9.32-7.23.03-14.47.02-21.7.01-4.84,0-6.49-1.68-6.5-6.55,0-4.9,0-9.79,0-14.69Z"/></svg>