<?xml version="1.0" encoding="UTF-8"?><svg id="Capa_1" xmlns="http://www.w3.org/2000/svg" viewBox="0 0 225 225"><defs><style>.cls-1{fill:#fff;stroke-width:0px;}</style></defs><path class="cls-1" d="M225,104v17c-.27,1.12-.64,2.22-.79,3.35-5.91,45.02-30.11,76.14-71.96,93.16-9.53,3.87-20.14,5.07-30.25,7.5h-19c-.75-.26-1.49-.66-2.26-.77-47.53-6.48-79.25-32.54-95.16-77.6C2.69,138.45,1.81,129.56,0,121c0-5.67,0-11.33,0-17,.27-.93.69-1.84.78-2.78C5.25,55.83,36.79,17.62,80.72,4.9,88.62,2.61,96.9,1.6,105,0,110,0,115,0,120,0c1.11.27,2.21.64,3.34.79,47.27,6,79.17,31.52,95.56,76.07,3.18,8.63,4.12,18.08,6.09,27.15ZM211,112.59c-.03-54.69-44.04-98.53-98.93-98.53-54.14,0-98.1,44.35-98.04,98.95.05,54.02,44.21,97.98,98.45,97.99,54.5.01,98.55-43.98,98.52-98.41Z"/><path class="cls-1" d="M93.36,145.85c22.48-23.18,44.95-46.35,67.44-69.52,1.16-1.19,2.32-2.41,3.62-3.43,3.24-2.54,6.63-2.37,9.43.49,2.84,2.9,2.83,6.33.09,9.4-2.22,2.48-4.67,4.74-7.03,7.09-22.69,22.5-45.39,45-68.08,67.51-5.62,5.57-8.7,5.67-14.27.24-10.49-10.22-20.96-20.48-31.4-30.74-4.27-4.2-4.86-8.09-1.81-11.27,3.17-3.31,7.47-2.96,11.7,1.49,9.07,9.52,17.95,19.22,26.91,28.85,1.14-.03,2.27-.06,3.41-.09Z"/></svg>