<?xml version="1.0" encoding="UTF-8"?><svg id="Capa_1" xmlns="http://www.w3.org/2000/svg" viewBox="0 0 278.36 367.27"><defs><style>.cls-1{fill:#fff;stroke-width:0px;}</style></defs><path class="cls-1" d="M0,107.62C2.12,51.88,56.66,5.57,126.99.47c80.8-5.87,151.15,44.46,151.36,108.38.05,14.58-6.14,28.16-12.08,41.66-19.67,44.72-45.12,87.49-70.34,130.34-16.07,27.31-32.42,54.51-48.95,81.65-1.32,2.16-4.78,4.38-7.64,4.77-1.94.27-5.61-2.23-6.73-4.14-31.59-53.71-63.71-107.24-94-161.41-13.4-23.97-23.28-49.19-34.11-74.02-2.77-6.34-3.07-13.35-4.51-20.05ZM139.6,347.91c1.58-2.52,2.55-3.98,3.44-5.47,18.94-31.76,38.69-63.24,56.59-95.37,19.34-34.71,37.47-69.85,54.98-105.16,5.14-10.36,9.18-22,8.89-32.96-1.11-40.8-25.47-71.32-72.23-88.3C144.82,3.77,99.82,8.7,60.23,34.47,28.03,55.43,11.52,83.41,16.74,116.53c2.69,17.05,10.55,34.01,19.17,49.96,25.16,46.51,51.78,92.52,78.04,138.65,8.01,14.06,16.7,27.88,25.65,42.77Z"/><path class="cls-1" d="M139.36,51.58c40.83.09,73.89,33.29,73.64,73.97-.25,41.14-33.44,73.9-74.67,73.71-40.14-.19-72.94-33.5-72.97-74.11-.03-40.69,33.13-73.65,74-73.56ZM138.93,184.56c32.98.04,59.44-26.17,59.55-59.01.11-32.74-26.47-59.57-59.1-59.66-32.67-.09-59.5,26.58-59.56,59.22-.07,32.93,26.26,59.4,59.11,59.44Z"/></svg>