<?xml version="1.0" encoding="UTF-8"?><svg id="Capa_1" xmlns="http://www.w3.org/2000/svg" viewBox="0 0 132.2 127.62"><defs><style>.cls-1{fill:#000;stroke-width:0px;}</style></defs><path class="cls-1" d="M0,63.79c.91-1.56,1.63-3.28,2.79-4.62,1.47-1.7,3.64-2.22,6.06-2.21,0-.59,0-1.08,0-1.57,0-4.86,0-9.73,0-14.59,0-.41-.03-.83.02-1.24.15-1.15.77-1.9,1.98-1.87,1.2.04,1.83.78,1.85,1.97.03,1.79.02,3.58.02,5.37,0,3.44,0,6.88,0,10.33,0,.49,0,.98,0,1.64,2.1,0,4.02,0,5.93,0,6.81-.01,12.77,2.23,17.82,6.82.81.73,1.57,1.52,2.65,2.56.18-.31.3-.68.54-.94,4.16-4.53,9.27-7.32,15.36-8.13,1.42-.19,1.65-.73,1.64-1.99-.05-6.98-.03-13.95-.02-20.93,0-.5-.13-1.14.12-1.48.45-.6,1.08-1.28,1.75-1.45.91-.22,1.68.41,1.9,1.39.12.53.11,1.09.11,1.64,0,6.93.05,13.86-.03,20.79-.02,1.46.45,1.78,1.79,1.73,2.72-.09,2.72-.02,2.72-2.81,0-4.73.01-9.45,0-14.18,0-1.2.41-2.09,1.66-2.33,1.26-.24,2.2.74,2.21,2.32.02,5.05,0,10.1,0,15.14,0,.54,0,1.08,0,1.69.76.1,1.39.17,2.01.28,3.93.66,6.8,4.01,6.82,7.99.03,4.11-1.37,7.71-3.91,10.92-.47.59-.87,1.3-1.07,2.02-2.39,8.71-4.76,17.43-7.07,26.17-.19.72-.09,1.64.2,2.33,1.73,4.1,3.57,8.15,5.35,12.23,2.1,4.79-.51,8.79-5.74,8.79-10.74.01-21.48,0-32.22,0-.5,0-1.17.09-1.46-.18-.55-.5-1.2-1.24-1.2-1.89,0-.57.73-1.26,1.31-1.66.39-.27,1.06-.14,1.61-.14,10.55,0,21.11,0,31.66,0,2.8,0,3.49-1.05,2.37-3.6-1.67-3.82-3.39-7.63-5.03-11.47-.36-.84-.81-1.14-1.74-1.14-14.59.03-29.19.03-43.78,0-.91,0-1.4.27-1.76,1.12-1.69,3.97-3.47,7.9-5.18,11.85-.89,2.06-.14,3.22,2.08,3.23,3.4.02,6.79,0,10.19,0,1.06,0,1.91.34,2.21,1.46.33,1.26-.5,2.38-1.93,2.4-3.81.05-7.62.15-11.42-.04-4.11-.2-6.51-4.22-4.89-8.09,1.82-4.36,3.81-8.65,5.66-12.99.26-.61.33-1.43.16-2.07-2.35-8.87-4.75-17.72-7.16-26.57-.13-.47-.33-.98-.64-1.34-2.18-2.53-3.58-5.42-4.11-8.72-.02-.12-.13-.23-.2-.35,0-1.19,0-2.39,0-3.58ZM67.93,80.88c-2.1.44-4,.95-5.94,1.23-2.03.29-3.07-.36-3.19-1.69-.12-1.35.73-1.98,2.86-2.15,6.69-.53,11.99-5.99,12.17-12.55.08-2.97-1.6-4.79-4.56-4.82-3.58-.04-7.16-.06-10.74,0-7.31.15-13.18,3.18-17.54,9.06-1.54,2.08-2.69,2.09-4.24,0-3.54-4.8-8.2-8.05-14.14-8.68-4.95-.52-9.98-.36-14.97-.29-2.24.03-3.83,2-3.75,4.31.19,5.26,2.6,9.26,7.32,11.57,1.76.86,3.85,1.05,5.81,1.45,1.15.23,1.86.77,1.91,1.97.04,1.09-.83,1.88-2.09,1.9-.78,0-1.57-.03-2.33-.19-1.53-.33-3.05-.75-4.63-1.15.03.25.03.43.07.6,1.91,7.08,3.84,14.16,5.72,21.26.22.83.66.95,1.38.95,14.54-.01,29.09-.02,43.63,0,.85,0,1.18-.28,1.39-1.1.94-3.69,1.96-7.35,2.96-11.03.96-3.53,1.92-7.06,2.88-10.62Z"/><path class="cls-1" d="M92.49,103.62c0-.76,0-1.26,0-1.76,0-19.96,0-39.93.02-59.89,0-1.07-.25-1.92-.94-2.75-1.81-2.19-3.56-4.44-5.29-6.7-.46-.6-.84-.75-1.6-.46-3.29,1.23-6.02.36-8.08-2.51-2.81-3.91-5.62-7.83-8.39-11.77-.51-.72-1.05-1.04-1.93-.99-1.14.07-2.29-.01-3.44.03-1.55.05-2.27.77-2.31,2.31-.04,1.47.01,2.94-.02,4.41-.03,1.49-.78,2.33-1.98,2.3-1.14-.03-1.85-.84-1.87-2.26-.03-1.61-.05-3.21,0-4.82.13-3.3,2.5-5.65,5.81-5.81.27-.01.56-.06.82,0,3.25.69,5.25-.77,6.85-3.51,1.41-2.4,3.25-4.55,4.87-6.84C76.25.83,77.9,0,80.04,0c9.59.02,19.18.02,28.77,0,2.15,0,3.78.86,5.02,2.6,2.15,3.03,4.39,6,6.51,9.05.64.92,1.31,1.4,2.47,1.29,1.09-.1,2.2-.04,3.3-.02,3.57.09,6.06,2.57,6.06,6.12.01,27.44.01,54.89,0,82.33,0,3.59-2.46,6.1-6.05,6.1-17.35.03-34.69.01-52.04,0-1.52,0-2.37-.71-2.39-1.89-.02-1.22.86-1.97,2.45-1.97,5.51-.02,11.01,0,16.52,0,.54,0,1.08,0,1.81,0ZM96.36,103.62c.72,0,1.26,0,1.8,0,8.99,0,17.98,0,26.97,0,2.72,0,3.19-.48,3.19-3.21,0-26.79,0-53.58,0-80.37,0-.32.01-.64,0-.96-.07-1.45-.77-2.19-2.22-2.26-1.1-.05-2.21.05-3.3-.03-1.02-.08-1.67.26-2.28,1.12-2.75,3.95-5.57,7.86-8.38,11.77-1.91,2.66-4.97,3.61-8.02,2.41-.77-.31-1.13-.13-1.58.46-1.73,2.25-3.57,4.43-5.24,6.73-.52.71-.9,1.72-.9,2.59-.05,20-.04,40-.04,60v1.76ZM79.74,4c4.97,6.46,9.78,12.72,14.68,19.09,4.93-6.42,9.73-12.65,14.68-19.09h-29.36ZM111.96,6.64c-3.84,5-7.59,9.85-11.29,14.74-.17.22-.13.8.05,1.05,1.27,1.8,2.55,3.58,3.92,5.3,1.09,1.37,3.02,1.43,4.05.04,3.13-4.23,6.15-8.54,9.26-12.88-2-2.75-3.95-5.45-5.99-8.26ZM76.87,6.63c-1.98,2.74-3.85,5.27-5.65,7.86-.16.23.03.87.25,1.18,2.77,3.94,5.56,7.86,8.39,11.76,1.26,1.74,3.19,1.78,4.49.1,1.27-1.63,2.5-3.29,3.67-4.99.21-.31.26-1,.06-1.27-3.65-4.83-7.35-9.62-11.21-14.64ZM91.11,25.18q-3.13,3.23-.54,6.55c.34.43.67.87,1.01,1.3.92,1.16,1.85,2.31,2.85,3.56,1.97-2.5,3.83-4.82,5.63-7.17.19-.25.28-.82.13-1.05-.71-1.09-1.52-2.12-2.39-3.29-.57.72-.98,1.26-1.4,1.79-1.43,1.8-2.53,1.81-3.94.04-.45-.57-.9-1.14-1.36-1.72Z"/><path class="cls-1" d="M123.15,58.33c0,2.25,0,4.49,0,6.74,0,2.49-1.1,4.31-3.29,5.45-1.46.76-2.93,1.51-4.43,2.2-1.99.91-4.01.9-5.99-.03-1.49-.7-2.97-1.45-4.43-2.2-2.11-1.08-3.23-2.85-3.25-5.2-.05-4.63-.07-9.26,0-13.89.04-3,2.15-5.09,5.16-5.15,3.71-.07,7.43-.07,11.14,0,3,.06,5.05,2.2,5.09,5.2.03,2.29,0,4.59,0,6.88ZM119.28,58.55c0-2.25-.02-4.5,0-6.74.02-1.16-.51-1.7-1.65-1.7-3.44,0-6.88,0-10.32,0-1.12,0-1.71.5-1.71,1.65,0,4.4,0,8.81,0,13.21,0,1.02.43,1.74,1.36,2.19,6.33,3.07,4.55,3.13,10.57.23,1.22-.59,1.81-1.39,1.76-2.79-.08-2.02-.02-4.04-.02-6.06Z"/></svg>