<?xml version="1.0" encoding="UTF-8"?><svg id="Capa_1" xmlns="http://www.w3.org/2000/svg" viewBox="0 0 920 920"><defs><style>.cls-1{fill:#1c968cdd;stroke-width:0px;}</style></defs><path class="cls-1" d="M920,441v37c-.28,2.12-.72,4.22-.81,6.35-1.08,24.66-4.4,49.05-9.8,73.1-18.67,83.17-56.94,156.1-115.35,218.24-53.14,56.54-116.91,96.6-190.44,121.12-34.2,11.4-69.31,18.54-105.28,21.3-7.11.55-14.21,1.25-21.32,1.89h-34c-2.63-.31-5.25-.65-7.88-.93-16.7-1.76-33.52-2.73-50.07-5.4-51.5-8.3-100.06-25.44-145.84-50.44-44.67-24.39-84.28-55.31-118.64-92.83-33.88-37-61.04-78.48-81.27-124.43-20.54-46.65-33.26-95.32-37.45-146.17C1.28,492.86.62,485.93,0,479c0-12.33,0-24.67,0-37,.29-2.29.73-4.57.84-6.86,1.69-34,7.22-67.39,16.51-100.12,13.63-48.04,34.37-92.79,62.54-134.07,31.11-45.58,69.26-84.26,114.18-116.23,41.67-29.65,87.08-51.72,136.13-66.26,28.44-8.43,57.39-14.13,86.98-16.54C424.46,1.33,431.73.64,439,0c12,0,24,0,36,0,11.24.95,22.49,1.85,33.73,2.86,26.55,2.37,52.6,7.17,78.18,14.9,83.03,25.12,154.83,68.16,213.3,132.68,27.64,30.5,50.88,64.02,69.53,100.75,25.33,49.86,41.35,102.47,47.29,158.11,1.13,10.55,1.98,21.13,2.97,31.7ZM280.42,572.32c-18.44-1.01-34.89,4.69-49.6,14.61-25.74,17.37-43.05,40.47-45.14,72.67-1.73,26.61,16.97,50.94,42.19,54.07,8.97,1.11,18.39.87,27.33-.52,23.74-3.68,42.61-16.4,57.87-34.47,10.67-12.64,18.99-26.55,19.03-43.94.02-6.83.46-13.65.46-20.48.04-43.65-.04-87.3.05-130.94.04-22.64.27-45.28.55-67.92.13-10.13,1.86-12.36,11.32-15.64,5.49-1.91,10.94-4.02,16.55-5.5,67.65-17.75,135.31-35.47,203.02-52.99,8.15-2.11,16.57-3.68,24.95-4.3,9.83-.72,14.94,3.91,16.32,13.61.84,5.91,1.34,11.93,1.34,17.9-.05,39.96-.27,79.92-.46,119.88-.04,8.08-.1,8.08-8.17,9.47-.33.06-.65.15-.98.2-24.73,3.07-44.95,14.76-61.75,32.68-17.9,19.1-27.96,41.12-24.36,68.01,2.93,21.82,24.48,43.42,47.02,41.41,5.78-.52,11.71.45,17.46-.2,6.55-.74,13.38-1.53,19.39-4.01,29.54-12.18,49.4-34.17,61.9-63.18.57-1.31.55-2.93.57-4.42.53-51.46,1.01-102.93,1.54-154.39.41-39.97,1.03-79.95,1.22-119.92.08-18.13-.61-36.27-1.05-54.4-.34-13.79-16.08-29.83-29.89-27.57-5.4.89-10.93,1.21-16.23,2.51-32.92,8.03-65.89,15.89-98.65,24.52-57.33,15.1-114.57,30.57-171.75,46.23-15.68,4.29-31.07,9.64-46.49,14.84-8.91,3.01-14.32,9.59-15.97,18.84-.79,4.39-.94,8.95-.95,13.43-.08,26.14-.21,52.29,0,78.43.32,38.79.95,77.59,1.35,116.38.15,14.78.02,29.57.02,45.09Z"/></svg>