<?xml version="1.0" encoding="UTF-8"?>
<svg id="Capa_1" data-name="Capa 1" xmlns="http://www.w3.org/2000/svg" viewBox="0 0 233.82 186.38">
  <defs>
    <style>
      .cls-1 {
        fill: #0e7068;
      }

      .cls-1, .cls-2, .cls-3 {
        stroke-width: 0px;
      }

      .cls-2 {
        fill: #3aa49b;
      }

      .cls-3 {
        fill: #fff;
      }
    </style>
  </defs>
  <path class="cls-1" d="M216.72,141.37c0,.28,0,.47,0,.65.05,5.19.1,10.38.15,15.57.02,1.73-.1,3.44-.58,5.11-.34,1.17-1.07,1.96-2.14,2.48-1.64.79-3.41,1-5.2,1.04-1.89.05-3.79.02-5.69.03-1.07,0-1.21.12-1.43,1.15-.35,1.63-.74,3.26-.41,4.94.33,1.67.72,3.33,1.85,4.7.42.5.57,1.1.55,1.76-.03,1.63,0,3.26-.01,4.88,0,.34-.02.69-.06,1.03-.14,1.01-.6,1.46-1.62,1.53-.93.06-1.87.06-2.81.06-2.87,0-5.74,0-8.62,0-2.14,0-2.57-.44-2.63-2.59-.04-1.26-.18-2.52-.18-3.78,0-.68.05-1.41.3-2.02,1.29-3.16,1.76-6.45,1.67-9.83-.01-.59,0-1.18,0-1.83-.33,0-.57,0-.82,0-26.18,0-52.35,0-78.53-.01-.38,0-.76-.06-1.14-.1-.4-.04-.64.08-.62.52.06,1.64.05,3.29.21,4.93.16,1.71.46,3.41.74,5.11.04.26.22.53.41.73.4.41.55.87.56,1.45,0,1.47.09,2.95.11,4.42,0,.51-.05,1.03-.12,1.54-.12.85-.48,1.28-1.34,1.42-.65.11-1.33.09-2,.1-3.14,0-6.28,0-9.42-.01-.65,0-1.3-.01-1.94-.12-.69-.11-1.18-.58-1.2-1.28-.06-2.2-.08-4.39-.07-6.59,0-.66.36-1.15.98-1.44.14-.06.3-.21.34-.35.43-1.53.94-3.04,1.22-4.6.32-1.75-.16-3.46-.66-5.14-.14-.45-.5-.6-.94-.6-1.4,0-2.8,0-4.19,0-2.02,0-4.01-.15-5.95-.79-2.42-.79-3.41-2.57-3.54-4.96-.06-1.05,0-2.1,0-3.16,0-5.17.01-10.34.02-15.51,0-.11-.02-.23-.03-.44-.3.17-.56.32-.82.46-4.44,2.37-8.88,4.74-13.32,7.11-.3.16-.63.29-.96.38-.86.23-1.41-.04-1.59-.92-.22-1.06-.43-2.15-.43-3.23-.03-7.85,3.65-13.42,10.63-16.81,3.72-1.8,7.56-3.35,11.29-5.11,8.8-4.15,17.36-8.73,25.75-13.67,3.92-2.3,6.99-5.33,9.22-9.29,1.99-3.53,4.14-6.98,6.59-10.22,3.4-4.49,7.61-7.94,12.92-9.97,1.87-.71,3.78-1.23,5.77-1.46.8-.09.92-.21.92-1.13,0-3.54-.02-7.08-.02-10.63,0-1.51,0-3.03.09-4.53.15-2.36,1.1-4.41,2.73-6.11,1.03-1.08,2.14-2.08,3.25-3.08,1.54-1.39,2.92-2.92,4.04-4.68,3.1-4.89,2.78-10.31-.95-14.74-3.34-3.97-7.67-5.21-12.69-4.5-3,.42-5.42,1.84-7.47,4.03-1.57,1.67-3.18,3.31-4.9,4.83-.79.7-1.83,1.16-2.82,1.58-.7.3-1.27-.05-1.55-.69-.22-.51-.18-.99.21-1.38.25-.26.54-.5.85-.67,1.8-1,3.27-2.39,4.69-3.85,1.22-1.25,2.43-2.5,3.75-3.63,2.63-2.25,5.79-3.12,9.19-3.21,7.15-.19,13.82,4.45,15.86,11.15,1.59,5.2.44,9.9-2.9,14.13-1.36,1.72-2.85,3.32-4.58,4.66-2.67,2.07-3.9,4.8-3.91,8.12-.02,4.56,0,9.11-.02,13.67,0,.48.28.5.6.57,1.55.33,3.14.54,4.65,1.01,4.95,1.55,9,4.49,12.46,8.3,2.58,2.84,4.52,6.12,6.6,9.31,1.14,1.75,2.29,3.49,3.42,5.24,1.95,3.01,4.66,5.2,7.67,7.05,9.14,5.63,18.66,10.52,28.48,14.85,3.15,1.39,6.27,2.86,9.31,4.46,5.06,2.66,8.3,6.79,9.45,12.45.42,2.06.5,4.14.28,6.23-.21,1.96-.82,2.36-2.63,1.62-.99-.41-1.94-.91-2.88-1.43-3.68-2.01-7.34-4.05-11.01-6.07-.11-.06-.24-.11-.47-.22ZM83.91,150.84h.04c0,2.62,0,5.25,0,7.87,0,.86,0,1.72.06,2.58.07.93.52,1.66,1.42,1.98.79.28,1.6.61,2.42.65,2.65.14,5.32.18,7.98.21.28,0,.7-.29.83-.56.94-1.86,1.46-3.8,1.18-5.92-.19-1.38-.32-2.79-.25-4.17.13-2.52,2-4.45,4.5-4.87,2.39-.4,4.71.89,5.72,3.19.31.7.66,1.39.91,2.11.22.63.45,1.29.45,1.94.01,1.34-.12,2.67-.19,4.01-.05,1.09-.12,2.18-.14,3.27,0,.78.19.95.95.97.54.02,1.07.02,1.61.02,25.3,0,50.59,0,75.89,0,.48,0,.96.03,1.43.07.95.08,1.17-.07,1.12-1.02-.07-1.26-.1-2.54-.34-3.77-.62-3.2.52-5.95,2.01-8.63.16-.29.41-.56.67-.78,1.54-1.38,3.32-1.83,5.27-1.14,1.95.69,3.12,2.15,3.4,4.19.16,1.2.09,2.44.05,3.67-.08,2.24.08,4.43.93,6.54.24.61.58.88,1.23.88,1.76,0,3.53.08,5.28,0,1.27-.06,2.56-.22,3.8-.5,1.34-.3,2.13-1.25,2.31-2.62.09-.7.15-1.41.15-2.12,0-5.63-.03-11.26.02-16.89.01-1.35-.54-2.17-1.67-2.72-.88-.43-1.77-.83-2.63-1.29-14.98-8.1-29.96-16.2-44.94-24.31-5-2.71-10-5.41-14.98-8.15-.66-.36-1.21-.4-1.88-.05-3.86,2.04-7.76,4-11.6,6.07-14.31,7.73-28.61,15.49-42.9,23.25-3.06,1.66-6.11,3.34-9.17,5.01-.57.31-.96.68-.96,1.42.03,3.22.01,6.43.01,9.65Z"/>
  <g>
    <path class="cls-2" d="M82.62,0c.96.15,1.94.22,2.88.47,6.29,1.67,10.62,5.44,12.18,11.89,1.15,4.72-.09,8.98-3.03,12.78-1.32,1.7-2.8,3.25-4.44,4.64-.28.23-.55.47-.83.71-2.07,1.73-3.16,3.97-3.29,6.64-.09,1.85-.08,3.71-.09,5.57-.01,2.97.01,5.94,0,8.9,0,.51.16.69.65.77,2.04.31,4.07.69,6.01,1.47,5.11,2.04,9.27,5.35,12.57,9.7,1.8,2.38,3.37,4.92,5.03,7.4.94,1.4,1.89,2.79,2.76,4.23,2.08,3.45,4.96,6.05,8.38,8.1,2.53,1.51,5.08,2.99,7.62,4.49.14.09.29.17.47.29-2.9,3.4-5.17,7.19-7.48,10.99-.18-.09-.35-.17-.51-.25-11.66-6.31-23.33-12.62-34.99-18.93-.07-.04-.13-.07-.2-.11-1.76-1.01-1.38-1.08-3.42-.02-21.04,10.9-41.72,22.46-62.57,33.71-.89.48-1.37,1.05-1.16,2.09.05.24.02.5.02.75,0,5.88-.02,11.76-.03,17.64,0,2.35.58,3.13,2.87,3.63.91.2,1.85.3,2.79.33,2.05.06,4.1.05,6.15.08.56,0,.8-.32,1.02-.76,1.03-2.07,1.3-4.23.98-6.53-.19-1.33-.25-2.72-.06-4.05.31-2.25,2.29-3.97,4.55-4.23,2.36-.27,4.53.92,5.5,3.02.02.03.03.07.05.11,1.67,3.79,1.65,3.18,1.21,8.33-.09,1.07-.09,2.14-.12,3.21-.02.57.28.84.85.84.42,0,.84.01,1.26.01,6.24,0,12.49,0,18.73,0,.23,0,.46,0,.76,0-.22.7-.42,1.35-.65,1.99-.03.09-.19.16-.3.18-.15.03-.3,0-.46,0-5.99,0-11.99,0-17.98,0-.57,0-1.14-.05-1.71-.1-.37-.03-.6.07-.59.49.11,3.21.11,6.44.84,9.59.11.48.42.91.63,1.37.14.29.37.57.39.86.08,1.64.12,3.29.14,4.94,0,.48-.05.96-.12,1.43-.13.9-.52,1.33-1.41,1.49-.41.08-.84.09-1.26.09-3.47,0-6.93,0-10.4-.03-.57,0-1.15-.03-1.71-.14-.72-.15-1.14-.66-1.17-1.38-.08-1.91-.11-3.83-.14-5.74,0-.36.04-.74.17-1.07.12-.33.3-.74.58-.87.61-.29.76-.79.91-1.35.34-1.35.81-2.68,1.01-4.05.25-1.67-.2-3.31-.68-4.91-.15-.49-.54-.6-1-.6-1.53,0-3.06,0-4.6,0-1.73,0-3.44-.14-5.1-.67-2.59-.82-3.79-2.3-3.91-5.02-.07-1.49,0-2.99,0-4.48,0-4.75,0-9.5,0-14.25,0-.11-.01-.22-.03-.42-.27.15-.5.27-.73.4-4.45,2.38-8.91,4.77-13.37,7.14-.33.18-.7.32-1.07.41-.81.2-1.31-.06-1.52-.88-.2-.8-.37-1.61-.41-2.43-.37-7.67,2.81-13.44,9.52-17.11,2.93-1.6,6.09-2.78,9.13-4.18,9.97-4.58,19.69-9.64,29.11-15.28,2.22-1.33,4.41-2.75,6.04-4.8,1.1-1.39,2.1-2.88,3.03-4.39,2.15-3.51,4.23-7.06,6.73-10.34,3.38-4.43,7.56-7.83,12.81-9.84,1.85-.71,3.75-1.21,5.71-1.46.91-.12.99-.18.99-1.12,0-4.17-.05-8.35-.04-12.52,0-1.15.06-2.3.2-3.43.3-2.34,1.48-4.25,3.14-5.86,1.2-1.18,2.48-2.28,3.7-3.45,1.9-1.82,3.46-3.9,4.39-6.38,1.74-4.61.63-8.71-2.45-12.34-2.96-3.49-6.87-4.76-11.36-4.42-3.51.27-6.41,1.72-8.76,4.35-1.32,1.48-2.71,2.92-4.2,4.23-.9.79-2,1.4-3.09,1.93-.85.41-1.5.09-1.82-.63-.24-.54-.16-1.02.25-1.42.26-.25.55-.49.86-.66,1.71-.95,3.12-2.27,4.48-3.65,1.36-1.37,2.72-2.75,4.19-4,2.22-1.89,4.91-2.67,7.76-2.96.22-.02.45-.07.67-.11.54,0,1.07,0,1.61,0Z"/>
    <path class="cls-3" d="M141.36,109.59c2.13-1.1,4.13-2.14,6.13-3.18.46-.24.92-.46,1.37-.72.41-.24.78-.19,1.19.03,3.35,1.84,6.7,3.67,10.06,5.49,2.79,1.51,5.58,3.01,8.36,4.54.15.08.31.3.33.47.27,1.83.29,3.66.03,5.49-.05.32-.15.63-.29.93-.28.58-.71.81-1.32.59-.93-.34-1.88-.68-2.74-1.15-3.99-2.16-7.95-4.37-11.92-6.56-.18-.1-.36-.19-.64-.34,0,.29,0,.49,0,.69.05,5.09.11,10.18.16,15.28.02,1.8-.08,3.59-.58,5.34-.34,1.19-1.09,2-2.18,2.52-1.57.75-3.26.98-4.97,1.02-1.95.05-3.91.02-5.86.04-1.1,0-1.24.11-1.46,1.18-.34,1.59-.74,3.19-.42,4.83.33,1.67.7,3.34,1.82,4.71.44.54.61,1.16.6,1.87-.03,1.65,0,3.29-.01,4.94,0,.31,0,.61-.05.92-.17,1.06-.58,1.45-1.66,1.57-.47.05-.95.07-1.43.07-3.31,0-6.63,0-9.94,0-2.18,0-2.6-.43-2.69-2.6-.05-1.28-.2-2.56-.18-3.84.02-.8.16-1.65.45-2.4.96-2.54,1.47-5.14,1.5-7.85.01-1.11,0-2.21,0-3.38h-39.66s-.03-.09-.04-.13c.76-.42,1.54-.79,2.26-1.27,1-.67,2.07-.81,3.26-.81,10.63.03,21.25.02,31.88.02.42,0,.84.03,1.26.07.84.08,1.08-.09,1.04-.92-.06-1.22-.23-2.44-.29-3.66-.06-1.33-.22-2.69-.04-4,.26-1.89,1.17-3.63,2.27-5.14,1.25-1.71,3.15-2.28,5.23-1.75,2.13.54,3.46,2,3.81,4.14.22,1.36.13,2.78.08,4.18-.07,2.19.14,4.32.99,6.36.18.44.44.72.92.71,2.53-.03,5.05-.05,7.58-.1.43,0,.87-.13,1.3-.23,1.86-.46,2.67-1.43,2.83-3.34.04-.51.05-1.03.05-1.55,0-5.74-.02-11.49,0-17.23,0-.91-.34-1.55-1.08-2.01-.49-.3-1-.55-1.51-.82-1.9-.98-3.8-1.97-5.81-3Z"/>
  </g>
</svg>