<?xml version="1.0" encoding="UTF-8"?><svg id="Capa_1" xmlns="http://www.w3.org/2000/svg" viewBox="0 0 836.42 980.1"><defs><style>.cls-1{fill:#fff;stroke-width:0px;}</style></defs><path class="cls-1" d="M265.25,0c5.67,0,11.34,0,17,0,.55.29,1.08.79,1.65.83,10.56.83,20.39,4.18,29.79,8.84,23.15,11.49,40.03,29.78,54.55,50.57,25.37,36.32,41.32,77.02,55,118.76,2.89,8.81,5.44,17.73,8.44,27.54.8-2.44,1.26-3.84,1.72-5.25,7.26-22.37,15.17-44.5,26.15-65.36,12.4-23.54,26.96-45.44,48.84-61.49,19.96-14.64,42.17-20.28,66.71-16.59,19.35,2.91,36.1,11.61,51.61,23.05,12.97,9.57,24.23,20.8,31.87,35.15,16.65,31.29,12.05,61.34-6.09,90.27-15.79,25.18-37.68,44.54-60.98,62.44-6.57,5.05-13.42,9.75-21.03,15.26h6.76c74.85,0,149.7,0,224.55,0,18.44,0,34.52,14.75,34.55,32.18.12,63.34.1,126.68,0,190.02-.02,14-10.96,27.66-24.64,30.77-5.88,1.34-12.01,1.6-18.33,2.39v6.01c0,133.35,0,266.69,0,400.04,0,20.02-14.74,34.66-34.89,34.66-226.88,0-453.76,0-680.64,0-19.77,0-34.63-14.79-34.63-34.47,0-133.35,0-266.69,0-400.04v-6.91c-3.12,0-5.74,0-8.36,0-21.43.02-34.87-17.73-34.78-35.16.33-61.17.45-122.35-.06-183.51-.16-19.17,14.82-36.11,36.01-36.07,82.85.19,165.7.08,248.55.08h5.52c-13.69-9.06-26.86-17.12-39.32-26.18-12.45-9.06-24.49-18.74-36.15-28.81-21.31-18.39-39.49-39.44-51.28-65.33-13.49-29.61-13.94-59.26.65-88.71,8.62-17.41,21.06-31.76,35.9-44.1,15.84-13.16,33-23.91,53.49-28.34C257.33,1.71,261.29.86,265.25,0ZM356.74,911.96v-403.6H111.57v403.6h245.17ZM483.66,508.27v403.41h241.42v-403.41h-241.42ZM356.87,352.39H68.62v114.32h288.25v-114.32ZM483.54,466.71h284.43v-114.41h-284.43v114.41ZM371.41,250.48c-10.07-43.13-22.97-84.33-41.99-123.33-8.58-17.6-18.04-34.85-32.84-48.17-14.25-12.82-24.48-13.93-39.2-5.69-10.66,5.97-19.76,14.03-27.33,23.61-9.99,12.63-11.36,26.1-3.96,40.73,6.17,12.19,14.61,22.53,24.27,31.91,20.58,19.98,43.94,36.36,68.43,51.08,17.28,10.38,35.06,19.95,52.62,29.87ZM491.21,252.6c12.61-7.86,25.34-15.53,37.81-23.61,19.67-12.75,38.4-26.75,54.58-43.83,6.75-7.12,12.99-14.71,15.99-24.35,1.63-5.23.95-10.06-2.45-14.48-7.29-9.49-16.91-15.82-27.86-20.11-6.83-2.68-13.62-1.93-19.87,2.21-8.93,5.92-15.35,14.16-20.77,23.15-18.69,31.04-29.41,65.15-37.43,101.03Z"/></svg>